<?xml version="1.0" encoding="UTF-8"?>
<svg width="596px" height="595px" viewBox="0 0 596 595" version="1.1" xmlns="http://www.w3.org/2000/svg" xmlns:xlink="http://www.w3.org/1999/xlink">
    <!-- Generator: Sketch 49.3 (51167) - http://www.bohemiancoding.com/sketch -->
    <title>logo-l</title>
    <desc>Created with Sketch.</desc>
    <defs>
        <linearGradient x1="95.6773507%" y1="101.388609%" x2="21.7025284%" y2="-1.74273114%" id="linearGradient-1">
            <stop stop-color="#1176D4" offset="0%"></stop>
            <stop stop-color="#A0D1FF" offset="100%"></stop>
        </linearGradient>
        <linearGradient x1="4.51519727%" y1="36.7799682%" x2="109.538324%" y2="36.779967%" id="linearGradient-2">
            <stop stop-color="#000000" stop-opacity="0.296799812" offset="0%"></stop>
            <stop stop-color="#859990" stop-opacity="0.0985638162" offset="100%"></stop>
        </linearGradient>
    </defs>
    <g id="Logos" stroke="none" stroke-width="1" fill="none" fill-rule="evenodd">
        <g id="o-logo" transform="translate(-4.000000, 0.000000)">
            <g id="logo-l">
                <g id="Group-18">
                    <path d="M302.307692,595 C137.896771,595 4.61538462,461.804713 4.61538462,297.5 C4.61538462,133.195287 137.896771,0 302.307692,0 C466.718614,0 600,133.195287 600,297.5 C600,461.804713 466.718614,595 302.307692,595 Z M305.769231,465.852713 C396.896214,465.852713 470.769231,392.027418 470.769231,300.959302 C470.769231,209.891186 396.896214,136.065891 305.769231,136.065891 C214.642247,136.065891 140.769231,209.891186 140.769231,300.959302 C140.769231,392.027418 214.642247,465.852713 305.769231,465.852713 Z" id="Combined-Shape" fill="url(#linearGradient-1)"></path>
                    <path d="M304.615385,136.069839 C214.019479,136.689882 140.769231,210.275862 140.769231,300.959302 C140.769231,391.642742 214.019479,465.228722 304.615385,465.848766 L53.7453057,465.852713 C22.6998082,418.604001 4.61538462,361.91468 4.61538462,300.959302 C4.61538462,240.003925 22.6998082,183.314604 53.7453057,136.065891 L304.615385,136.065891 Z" id="Combined-Shape" fill="url(#linearGradient-2)"></path>
                    <path d="M309.230776,136.101458 C308.079785,136.077785 306.925898,136.065891 305.769231,136.065891 C262.101235,136.065891 222.395303,153.018546 192.88177,180.697546 L57.6923042,136.089234 C57.6973637,136.081453 57.7024193,136.073672 57.7074753,136.065891 L309.230769,136.065891 L309.230769,136.101458 Z" id="Combined-Shape" fill="url(#linearGradient-2)"></path>
                </g>
            </g>
        </g>
    </g>
</svg>