<?xml version="1.0" encoding="UTF-8"?>
<svg width="1921px" height="595px" viewBox="0 0 1921 595" version="1.1" xmlns="http://www.w3.org/2000/svg" xmlns:xlink="http://www.w3.org/1999/xlink">
    <!-- Generator: Sketch 49.3 (51167) - http://www.bohemiancoding.com/sketch -->
    <title>logo-label-l</title>
    <desc>Created with Sketch.</desc>
    <defs>
        <linearGradient x1="95.6773507%" y1="101.388609%" x2="21.7025284%" y2="-1.74273114%" id="linearGradient-1">
            <stop stop-color="#1176D4" offset="0%"></stop>
            <stop stop-color="#A0D1FF" offset="100%"></stop>
        </linearGradient>
        <linearGradient x1="4.51519727%" y1="36.7799682%" x2="109.538324%" y2="36.779967%" id="linearGradient-2">
            <stop stop-color="#000000" stop-opacity="0.296799812" offset="0%"></stop>
            <stop stop-color="#859990" stop-opacity="0.0985638162" offset="100%"></stop>
        </linearGradient>
    </defs>
    <g id="Logos" stroke="none" stroke-width="1" fill="none" fill-rule="evenodd">
        <g id="Artboard" transform="translate(-304.000000, -2073.000000)">
            <g id="Group-2" transform="translate(300.000000, 2073.000000)">
                <g id="logo-label-l">
                    <g id="Group-23">
                        <g id="Group-18">
                            <path d="M302.307692,595 C137.896771,595 4.61538462,461.804713 4.61538462,297.5 C4.61538462,133.195287 137.896771,0 302.307692,0 C466.718614,0 600,133.195287 600,297.5 C600,461.804713 466.718614,595 302.307692,595 Z M305.769231,465.852713 C396.896214,465.852713 470.769231,392.027418 470.769231,300.959302 C470.769231,209.891186 396.896214,136.065891 305.769231,136.065891 C214.642247,136.065891 140.769231,209.891186 140.769231,300.959302 C140.769231,392.027418 214.642247,465.852713 305.769231,465.852713 Z" id="Combined-Shape" fill="url(#linearGradient-1)"></path>
                            <path d="M304.615385,136.069839 C214.019479,136.689882 140.769231,210.275862 140.769231,300.959302 C140.769231,391.642742 214.019479,465.228722 304.615385,465.848766 L53.7453057,465.852713 C22.6998082,418.604001 4.61538462,361.91468 4.61538462,300.959302 C4.61538462,240.003925 22.6998082,183.314604 53.7453057,136.065891 L304.615385,136.065891 Z" id="Combined-Shape" fill="url(#linearGradient-2)"></path>
                            <path d="M309.230776,136.101458 C308.079785,136.077785 306.925898,136.065891 305.769231,136.065891 C262.101235,136.065891 222.395303,153.018546 192.88177,180.697546 L57.6923042,136.089234 C57.6973637,136.081453 57.7024193,136.073672 57.7074753,136.065891 L309.230769,136.065891 L309.230769,136.101458 Z" id="Combined-Shape" fill="url(#linearGradient-2)"></path>
                        </g>
                    </g>
                    <path d="M703,290.873131 C703,254.007423 716.203781,222.645834 742.61174,196.787423 C769.019699,170.929012 801.198452,158 839.148962,158 C877.27436,158 909.627997,171.01637 936.210843,197.0495 C962.443915,223.08263 975.560254,255.055726 975.560254,292.969748 C975.560254,331.233208 962.356472,363.293663 935.948513,389.152074 C909.365667,414.835766 876.749704,427.677419 838.099645,427.677419 C799.79936,427.677419 767.70805,414.573691 741.824752,388.365842 C715.941455,362.507431 703,330.010186 703,290.873131 Z M763.712474,291.658839 C763.712474,317.179138 770.557144,337.36784 784.246689,352.225548 C798.287249,367.258054 816.802959,374.774194 839.794375,374.774194 C862.961298,374.774194 881.477008,367.345451 895.34206,352.487742 C909.207113,337.630033 916.139535,317.79092 916.139535,292.969806 C916.139535,268.148693 909.207113,248.30958 895.34206,233.451871 C881.301501,218.419366 862.785791,210.903226 839.794375,210.903226 C817.153973,210.903226 798.813767,218.419366 784.773207,233.451871 C770.732648,248.484376 763.712474,267.886505 763.712474,291.658839 Z M1035.30391,164.451613 L1101.50634,308.189334 L1167.44607,164.451613 L1233.91121,164.451613 L1100.98093,438 L969.10148,164.451613 L1035.30391,164.451613 Z M1471.82034,306.597762 L1289.00276,306.597762 C1290.57427,327.564041 1297.38402,344.249455 1309.43223,356.654503 C1321.48044,368.884833 1336.93335,374.999906 1355.79142,374.999906 C1370.45881,374.999906 1382.59414,371.505578 1392.19779,364.516819 C1401.62682,357.528059 1412.36528,344.599047 1424.41349,325.729396 L1474.17759,353.509577 C1466.49467,366.613502 1458.37535,377.839029 1449.81937,387.186495 C1441.2634,396.533961 1432.09642,404.221482 1422.31816,410.249287 C1412.5399,416.277092 1401.97605,420.688681 1390.62629,423.484184 C1379.27653,426.279688 1366.96658,427.677419 1353.69609,427.677419 C1315.63073,427.677419 1285.07413,415.447273 1262.02538,390.986614 C1238.97663,366.351236 1227.45243,333.679274 1227.45243,292.969748 C1227.45243,252.609661 1238.62742,219.937699 1260.97772,194.952883 C1283.50263,170.317504 1313.36079,158 1350.55309,158 C1388.09462,158 1417.77817,169.968072 1439.60464,193.904574 C1461.25649,217.666357 1472.08226,250.600393 1472.08226,292.707671 L1471.82034,306.597762 Z M1412.17336,258.645161 C1403.93505,226.817045 1384.0407,210.903226 1352.48972,210.903226 C1345.30311,210.903226 1338.5548,212.008352 1332.24461,214.218638 C1325.93441,216.428924 1320.19397,219.611688 1315.02312,223.767025 C1309.85226,227.922362 1305.42642,232.917534 1301.74548,238.752688 C1298.06453,244.587843 1295.26004,251.218601 1293.33192,258.645161 L1412.17336,258.645161 Z M1512.93023,165.065193 L1571.78923,165.065193 L1571.78923,187.830814 C1582.6019,176.491559 1592.19364,168.728647 1600.56474,164.541845 C1609.11024,160.180593 1619.22516,158 1630.90982,158 C1646.43124,158 1662.65,163.058976 1679.5666,173.177081 L1652.62225,227.081886 C1641.46079,219.057182 1630.56108,215.044891 1619.92281,215.044891 C1587.8336,215.044891 1571.78923,239.293088 1571.78923,287.79021 L1571.78923,419.935484 L1512.93023,419.935484 L1512.93023,165.065193 Z M1922.64275,306.597762 L1739.82517,306.597762 C1741.39668,327.564041 1748.20643,344.249455 1760.25464,356.654503 C1772.30285,368.884833 1787.75576,374.999906 1806.61383,374.999906 C1821.28122,374.999906 1833.41655,371.505578 1843.0202,364.516819 C1852.44923,357.528059 1863.18769,344.599047 1875.2359,325.729396 L1925,353.509577 C1917.31708,366.613502 1909.19776,377.839029 1900.64178,387.186495 C1892.08581,396.533961 1882.91883,404.221482 1873.14057,410.249287 C1863.36231,416.277092 1852.79846,420.688681 1841.4487,423.484184 C1830.09894,426.279688 1817.78899,427.677419 1804.5185,427.677419 C1766.45314,427.677419 1735.89654,415.447273 1712.84779,390.986614 C1689.79904,366.351236 1678.27484,333.679274 1678.27484,292.969748 C1678.27484,252.609661 1689.44983,219.937699 1711.80013,194.952883 C1734.32504,170.317504 1764.1832,158 1801.3755,158 C1838.91703,158 1868.60058,169.968072 1890.42705,193.904574 C1912.0789,217.666357 1922.90467,250.600393 1922.90467,292.707671 L1922.64275,306.597762 Z M1861.70402,258.645161 C1853.4657,226.817045 1833.57136,210.903226 1802.02037,210.903226 C1794.83376,210.903226 1788.08546,212.008352 1781.77526,214.218638 C1775.46507,216.428924 1769.72463,219.611688 1764.55377,223.767025 C1759.38292,227.922362 1754.95708,232.917534 1751.27613,238.752688 C1747.59518,244.587843 1744.79069,251.218601 1742.86258,258.645161 L1861.70402,258.645161 Z" id="overe" fill="#464646"></path>
                </g>
            </g>
        </g>
    </g>
</svg>